<?xml version="1.0" encoding="UTF-8" standalone="no"?>
<svg
        xmlns:dc="http://purl.org/dc/elements/1.1/"
        xmlns:cc="http://creativecommons.org/ns#"
        xmlns:rdf="http://www.w3.org/1999/02/22-rdf-syntax-ns#"
        xmlns:sodipodi="http://sodipodi.sourceforge.net/DTD/sodipodi-0.dtd"
        xmlns:inkscape="http://www.inkscape.org/namespaces/inkscape"
        xmlns="http://www.w3.org/2000/svg"
        height="511.992pt"
        viewBox="0 0 511.992 511.992"
        width="511.992pt"
        version="1.1"
        id="svg4"
        sodipodi:docname="cross.svg"
        inkscape:version="0.92.3 (2405546, 2018-03-11)">
    <metadata
            id="metadata10">
        <rdf:RDF>
            <cc:Work
                    rdf:about="">
                <dc:format>image/svg+xml</dc:format>
                <dc:type
                        rdf:resource="http://purl.org/dc/dcmitype/StillImage"/>
            </cc:Work>
        </rdf:RDF>
    </metadata>
    <defs
            id="defs8"/>
    <sodipodi:namedview
            pagecolor="#ffffff"
            bordercolor="#666666"
            borderopacity="1"
            objecttolerance="10"
            gridtolerance="10"
            guidetolerance="10"
            inkscape:pageopacity="0"
            inkscape:pageshadow="2"
            inkscape:window-width="797"
            inkscape:window-height="480"
            id="namedview6"
            showgrid="false"
            inkscape:zoom="0.34570852"
            inkscape:cx="341.328"
            inkscape:cy="341.328"
            inkscape:window-x="0"
            inkscape:window-y="28"
            inkscape:window-maximized="0"
            inkscape:current-layer="svg4"/>
    <path
            d="m415.402344 495.421875-159.40625-159.410156-159.40625 159.410156c-22.097656 22.09375-57.921875 22.09375-80.019532 0-22.09375-22.097656-22.09375-57.921875 0-80.019531l159.410157-159.40625-159.410157-159.40625c-22.09375-22.097656-22.09375-57.921875 0-80.019532 22.097657-22.09375 57.921876-22.09375 80.019532 0l159.40625 159.410157 159.40625-159.410157c22.097656-22.09375 57.921875-22.09375 80.019531 0 22.09375 22.097657 22.09375 57.921876 0 80.019532l-159.410156 159.40625 159.410156 159.40625c22.09375 22.097656 22.09375 57.921875 0 80.019531-22.097656 22.09375-57.921875 22.09375-80.019531 0zm0 0"
            fill="#e76e54"
            id="path2"
            style="fill:#ffffff"/>
</svg>
