<?xml version="1.0" encoding="UTF-8" standalone="no"?>
<!-- Generator: Adobe Illustrator 16.0.0, SVG Export Plug-In . SVG Version: 6.00 Build 0)  -->

<svg
   xmlns:dc="http://purl.org/dc/elements/1.1/"
   xmlns:cc="http://creativecommons.org/ns#"
   xmlns:rdf="http://www.w3.org/1999/02/22-rdf-syntax-ns#"
   xmlns:svg="http://www.w3.org/2000/svg"
   xmlns="http://www.w3.org/2000/svg"
   xmlns:sodipodi="http://sodipodi.sourceforge.net/DTD/sodipodi-0.dtd"
   xmlns:inkscape="http://www.inkscape.org/namespaces/inkscape"
   version="1.1"
   id="Capa_1"
   x="0px"
   y="0px"
   width="512px"
   height="512px"
   viewBox="0 0 369.949 369.949"
   style="enable-background:new 0 0 369.949 369.949;"
   xml:space="preserve"
   sodipodi:docname="log-out-symbol.svg"
   inkscape:version="0.92.3 (2405546, 2018-03-11)"><metadata
   id="metadata45"><rdf:RDF><cc:Work
       rdf:about=""><dc:format>image/svg+xml</dc:format><dc:type
         rdf:resource="http://purl.org/dc/dcmitype/StillImage" /></cc:Work></rdf:RDF></metadata><defs
   id="defs43" /><sodipodi:namedview
   pagecolor="#ffffff"
   bordercolor="#666666"
   borderopacity="1"
   objecttolerance="10"
   gridtolerance="10"
   guidetolerance="10"
   inkscape:pageopacity="0"
   inkscape:pageshadow="2"
   inkscape:window-width="1366"
   inkscape:window-height="689"
   id="namedview41"
   showgrid="false"
   inkscape:zoom="0.4609375"
   inkscape:cx="-110.64407"
   inkscape:cy="256"
   inkscape:window-x="0"
   inkscape:window-y="27"
   inkscape:window-maximized="1"
   inkscape:current-layer="g6" />
<g
   id="g8">
	<g
   id="g6">
		
		<path
   d="M190.775,172.758H328.22c-6.233-73.619-68.053-131.649-143.245-131.649c-79.326,0-143.866,64.54-143.866,143.869    s64.54,143.881,143.866,143.881c74.447,0,135.864-56.865,143.143-129.439H190.775l10.568,10.58c5.206,5.207,5.206,13.644,0,18.844    c-5.212,5.212-13.646,5.212-18.852,0l-33.314-33.32c-0.015-0.007-0.015-0.019-0.027-0.019l-9.413-9.415l9.413-9.413    c0.012,0,0.012-0.012,0.027-0.018l31.093-31.102c2.609-2.605,6.02-3.906,9.427-3.906c3.408,0,6.818,1.3,9.425,3.906    c5.212,5.207,5.212,13.644,0,18.847L190.775,172.758z"
   fill="#444444"
   id="path4"
   style="fill:#0065ff;fill-opacity:1" />
	</g>
</g>
<g
   id="g10">
</g>
<g
   id="g12">
</g>
<g
   id="g14">
</g>
<g
   id="g16">
</g>
<g
   id="g18">
</g>
<g
   id="g20">
</g>
<g
   id="g22">
</g>
<g
   id="g24">
</g>
<g
   id="g26">
</g>
<g
   id="g28">
</g>
<g
   id="g30">
</g>
<g
   id="g32">
</g>
<g
   id="g34">
</g>
<g
   id="g36">
</g>
<g
   id="g38">
</g>
</svg>